<svg width="1776" height="3653" viewBox="0 0 1776 3653" fill="none" xmlns="http://www.w3.org/2000/svg">
<g filter="url(#filter0_f_203_272)">
<ellipse rx="491" ry="719" transform="matrix(-1 0 0 1 1654 2003)" fill="#FFE6F0"/>
</g>
<g opacity="0.6">
<g filter="url(#filter1_f_203_272)">
<path d="M1592.31 1068.65C827.641 1220.24 1079.15 873.896 821.78 1307.66C564.404 1741.43 383.229 1769.09 195.66 1731.47C45.6042 1701.37 -25.3027 1817.78 -41.9992 1879.74" stroke="#DEF9FF" stroke-width="121"/>
</g>
<g filter="url(#filter2_f_203_272)">
<path d="M1451.33 1392.76C686.669 1579.05 938.182 1153.43 680.807 1686.47" stroke="#75E7FF" stroke-width="61"/>
</g>
<g filter="url(#filter3_f_203_272)">
<path d="M1592.31 2191.75C827.641 2040.15 1079.15 2386.5 821.78 1952.73C564.404 1518.97 383.229 1491.3 195.66 1528.93C45.6042 1559.02 -25.3027 1442.62 -41.9992 1380.65" stroke="#E9EFFF" stroke-width="201"/>
</g>
<g opacity="0.7" filter="url(#filter4_f_203_272)">
<path d="M1592.31 2151.39C827.641 2014.88 1079.15 2326.77 821.78 1936.16C564.404 1545.56 383.229 1520.65 195.66 1554.52C45.6042 1581.63 -25.3027 1476.8 -41.9992 1421" stroke="#B4F2FF" stroke-width="131"/>
</g>
<g opacity="0.7" filter="url(#filter5_f_203_272)">
<path d="M1813.18 1742.42C1555.78 1352.87 1374.59 1328.02 1187 1361.81" stroke="#C8A7FF" stroke-width="151"/>
</g>
</g>
<defs>
<filter id="filter0_f_203_272" x="-121" y="-9.15527e-05" width="3550" height="4006" filterUnits="userSpaceOnUse" color-interpolation-filters="sRGB">
<feFlood flood-opacity="0" result="BackgroundImageFix"/>
<feBlend mode="normal" in="SourceGraphic" in2="BackgroundImageFix" result="shape"/>
<feGaussianBlur stdDeviation="642" result="effect1_foregroundBlur_203_272"/>
</filter>
<filter id="filter1_f_203_272" x="-565.416" y="544.303" width="2634.49" height="1816.18" filterUnits="userSpaceOnUse" color-interpolation-filters="sRGB">
<feFlood flood-opacity="0" result="BackgroundImageFix"/>
<feBlend mode="normal" in="SourceGraphic" in2="BackgroundImageFix" result="shape"/>
<feGaussianBlur stdDeviation="232.5" result="effect1_foregroundBlur_203_272"/>
</filter>
<filter id="filter2_f_203_272" x="429.342" y="1139.12" width="1253.21" height="784.608" filterUnits="userSpaceOnUse" color-interpolation-filters="sRGB">
<feFlood flood-opacity="0" result="BackgroundImageFix"/>
<feBlend mode="normal" in="SourceGraphic" in2="BackgroundImageFix" result="shape"/>
<feGaussianBlur stdDeviation="112" result="effect1_foregroundBlur_203_272"/>
</filter>
<filter id="filter3_f_203_272" x="-453.039" y="1040.5" width="2378.89" height="1563.82" filterUnits="userSpaceOnUse" color-interpolation-filters="sRGB">
<feFlood flood-opacity="0" result="BackgroundImageFix"/>
<feBlend mode="normal" in="SourceGraphic" in2="BackgroundImageFix" result="shape"/>
<feGaussianBlur stdDeviation="157" result="effect1_foregroundBlur_203_272"/>
</filter>
<filter id="filter4_f_203_272" x="-604.75" y="902.225" width="2708.57" height="1813.65" filterUnits="userSpaceOnUse" color-interpolation-filters="sRGB">
<feFlood flood-opacity="0" result="BackgroundImageFix"/>
<feBlend mode="normal" in="SourceGraphic" in2="BackgroundImageFix" result="shape"/>
<feGaussianBlur stdDeviation="250" result="effect1_foregroundBlur_203_272"/>
</filter>
<filter id="filter5_f_203_272" x="809.617" y="911.505" width="1430.56" height="1236.54" filterUnits="userSpaceOnUse" color-interpolation-filters="sRGB">
<feFlood flood-opacity="0" result="BackgroundImageFix"/>
<feBlend mode="normal" in="SourceGraphic" in2="BackgroundImageFix" result="shape"/>
<feGaussianBlur stdDeviation="182" result="effect1_foregroundBlur_203_272"/>
</filter>
</defs>
</svg>
